G04 #@! TF.GenerationSoftware,KiCad,Pcbnew,7.0.10-dirty*
G04 #@! TF.CreationDate,2024-02-04T15:29:55-03:00*
G04 #@! TF.ProjectId,simetrica,73696d65-7472-4696-9361-2e6b69636164,Version 2.0*
G04 #@! TF.SameCoordinates,Original*
G04 #@! TF.FileFunction,Soldermask,Bot*
G04 #@! TF.FilePolarity,Negative*
%FSLAX46Y46*%
G04 Gerber Fmt 4.6, Leading zero omitted, Abs format (unit mm)*
G04 Created by KiCad (PCBNEW 7.0.10-dirty) date 2024-02-04 15:29:55*
%MOMM*%
%LPD*%
G01*
G04 APERTURE LIST*
G04 Aperture macros list*
%AMRoundRect*
0 Rectangle with rounded corners*
0 $1 Rounding radius*
0 $2 $3 $4 $5 $6 $7 $8 $9 X,Y pos of 4 corners*
0 Add a 4 corners polygon primitive as box body*
4,1,4,$2,$3,$4,$5,$6,$7,$8,$9,$2,$3,0*
0 Add four circle primitives for the rounded corners*
1,1,$1+$1,$2,$3*
1,1,$1+$1,$4,$5*
1,1,$1+$1,$6,$7*
1,1,$1+$1,$8,$9*
0 Add four rect primitives between the rounded corners*
20,1,$1+$1,$2,$3,$4,$5,0*
20,1,$1+$1,$4,$5,$6,$7,0*
20,1,$1+$1,$6,$7,$8,$9,0*
20,1,$1+$1,$8,$9,$2,$3,0*%
G04 Aperture macros list end*
%ADD10C,3.200000*%
%ADD11C,2.000000*%
%ADD12O,2.000000X2.000000*%
%ADD13RoundRect,0.650000X-0.650000X-0.650000X0.650000X-0.650000X0.650000X0.650000X-0.650000X0.650000X0*%
%ADD14C,2.600000*%
%ADD15R,2.000000X2.000000*%
%ADD16R,2.200000X2.200000*%
%ADD17O,2.200000X2.200000*%
%ADD18R,1.800000X1.800000*%
%ADD19C,1.800000*%
%ADD20R,2.600000X2.600000*%
%ADD21RoundRect,0.650000X0.650000X0.650000X-0.650000X0.650000X-0.650000X-0.650000X0.650000X-0.650000X0*%
%ADD22R,2.400000X2.400000*%
%ADD23C,2.400000*%
%ADD24R,1.600000X1.600000*%
%ADD25O,1.600000X1.600000*%
G04 APERTURE END LIST*
D10*
X116800000Y-113010000D03*
D11*
X142960000Y-69810000D03*
X137960000Y-69810000D03*
X107610000Y-119760000D03*
D12*
X107610000Y-129920000D03*
D11*
X130720000Y-98280000D03*
D12*
X140880000Y-98280000D03*
D11*
X112170000Y-132990000D03*
X107170000Y-132990000D03*
X144580000Y-105420000D03*
X144580000Y-100420000D03*
D13*
X109090000Y-54020000D03*
D14*
X114170000Y-54020000D03*
D15*
X130730000Y-76820000D03*
D11*
X127230000Y-76820000D03*
D16*
X118160000Y-68170000D03*
D17*
X108000000Y-68170000D03*
D18*
X161740000Y-114465000D03*
D19*
X161740000Y-111925000D03*
D16*
X140860000Y-94450000D03*
D17*
X140860000Y-84290000D03*
D20*
X139795000Y-56505000D03*
D14*
X134715000Y-56505000D03*
X129635000Y-56505000D03*
D10*
X116330000Y-60910000D03*
D16*
X160660000Y-58430000D03*
D17*
X160660000Y-68590000D03*
D13*
X155830000Y-132430000D03*
D14*
X160910000Y-132430000D03*
D21*
X160690000Y-53740000D03*
D14*
X155610000Y-53740000D03*
D11*
X146460000Y-120760000D03*
D12*
X156620000Y-120760000D03*
D11*
X126560000Y-100000000D03*
X126560000Y-105000000D03*
D20*
X138755000Y-130715000D03*
D14*
X133675000Y-130715000D03*
D21*
X150470000Y-132430000D03*
D14*
X145390000Y-132430000D03*
D22*
X124365216Y-122950000D03*
D23*
X119365216Y-122950000D03*
D16*
X128630000Y-84290000D03*
D17*
X128630000Y-94450000D03*
D11*
X111570000Y-129920000D03*
D12*
X111570000Y-119760000D03*
D15*
X162080000Y-91470000D03*
D12*
X162080000Y-88930000D03*
X162080000Y-86390000D03*
D16*
X116840000Y-132090000D03*
D17*
X127000000Y-132090000D03*
D10*
X152460000Y-60990000D03*
D11*
X145330000Y-125830000D03*
X150330000Y-125830000D03*
D15*
X155200000Y-127630000D03*
D12*
X157740000Y-127630000D03*
X160280000Y-127630000D03*
D15*
X146380000Y-110060000D03*
D12*
X146380000Y-117680000D03*
D11*
X124610000Y-108760000D03*
X129610000Y-108760000D03*
D16*
X123520000Y-62810000D03*
D17*
X123520000Y-52650000D03*
D16*
X146070000Y-52700000D03*
D17*
X146070000Y-62860000D03*
D11*
X131530000Y-69750000D03*
X126530000Y-69750000D03*
X141330000Y-122480000D03*
D12*
X131170000Y-122480000D03*
D10*
X152890000Y-113000000D03*
D24*
X133190000Y-103170000D03*
D25*
X133190000Y-105710000D03*
X133190000Y-108250000D03*
X133190000Y-110790000D03*
X140810000Y-110790000D03*
X140810000Y-108250000D03*
X140810000Y-105710000D03*
X140810000Y-103170000D03*
D11*
X131170000Y-119060000D03*
D12*
X141330000Y-119060000D03*
D15*
X107150000Y-86390000D03*
D12*
X107150000Y-88930000D03*
X107150000Y-91470000D03*
D11*
X131090000Y-115710000D03*
D12*
X141250000Y-115710000D03*
D15*
X142592651Y-76820000D03*
D11*
X139092651Y-76820000D03*
D19*
X109000000Y-115510000D03*
X109000000Y-112970000D03*
X109000000Y-110430000D03*
M02*
