%TF.GenerationSoftware,KiCad,Pcbnew,7.0.10-dirty*%
%TF.CreationDate,2024-02-04T15:30:24-03:00*%
%TF.ProjectId,simetrica,73696d65-7472-4696-9361-2e6b69636164,Version 2.0*%
%TF.SameCoordinates,Original*%
%TF.FileFunction,Drillmap*%
%TF.FilePolarity,Positive*%
%FSLAX45Y45*%
G04 Gerber Fmt 4.5, Leading zero omitted, Abs format (unit mm)*
G04 Created by KiCad (PCBNEW 7.0.10-dirty) date 2024-02-04 15:30:24*
%MOMM*%
%LPD*%
G01*
G04 APERTURE LIST*
%ADD10C,0.100000*%
%ADD11C,0.150000*%
%ADD12C,0.200000*%
%ADD13C,0.320000*%
G04 APERTURE END LIST*
D10*
X11061000Y-7135000D02*
X11283000Y-7135000D01*
X11283000Y-7584000D01*
X11061000Y-7584000D01*
X11061000Y-7135000D01*
D11*
X15640000Y-7148000D02*
X15860000Y-7148000D01*
X15860000Y-7688000D01*
X15640000Y-7688000D01*
X15640000Y-7148000D01*
D10*
X11062000Y-10193000D02*
X11282000Y-10193000D01*
X11282000Y-10735000D01*
X11062000Y-10735000D01*
X11062000Y-10193000D01*
X10300000Y-5000000D02*
X16600000Y-5000000D01*
X16600000Y-13700000D01*
X10300000Y-13700000D01*
X10300000Y-5000000D01*
X15633000Y-10261500D02*
X15855000Y-10261500D01*
X15855000Y-10710500D01*
X15633000Y-10710500D01*
X15633000Y-10261500D01*
D12*
D13*
X11473000Y-5931000D02*
X11793000Y-6251000D01*
X11793000Y-5931000D02*
X11473000Y-6251000D01*
X11520000Y-11141000D02*
X11840000Y-11461000D01*
X11840000Y-11141000D02*
X11520000Y-11461000D01*
X15086000Y-5939000D02*
X15406000Y-6259000D01*
X15406000Y-5939000D02*
X15086000Y-6259000D01*
X15129000Y-11140000D02*
X15449000Y-11460000D01*
X15449000Y-11140000D02*
X15129000Y-11460000D01*
D12*
X10555777Y-14016484D02*
X10555777Y-13816484D01*
X10555777Y-13816484D02*
X10603396Y-13816484D01*
X10603396Y-13816484D02*
X10631967Y-13826008D01*
X10631967Y-13826008D02*
X10651015Y-13845055D01*
X10651015Y-13845055D02*
X10660539Y-13864103D01*
X10660539Y-13864103D02*
X10670063Y-13902198D01*
X10670063Y-13902198D02*
X10670063Y-13930769D01*
X10670063Y-13930769D02*
X10660539Y-13968865D01*
X10660539Y-13968865D02*
X10651015Y-13987912D01*
X10651015Y-13987912D02*
X10631967Y-14006960D01*
X10631967Y-14006960D02*
X10603396Y-14016484D01*
X10603396Y-14016484D02*
X10555777Y-14016484D01*
X10755777Y-14016484D02*
X10755777Y-13883150D01*
X10755777Y-13921246D02*
X10765301Y-13902198D01*
X10765301Y-13902198D02*
X10774824Y-13892674D01*
X10774824Y-13892674D02*
X10793872Y-13883150D01*
X10793872Y-13883150D02*
X10812920Y-13883150D01*
X10879586Y-14016484D02*
X10879586Y-13883150D01*
X10879586Y-13816484D02*
X10870063Y-13826008D01*
X10870063Y-13826008D02*
X10879586Y-13835531D01*
X10879586Y-13835531D02*
X10889110Y-13826008D01*
X10889110Y-13826008D02*
X10879586Y-13816484D01*
X10879586Y-13816484D02*
X10879586Y-13835531D01*
X11003396Y-14016484D02*
X10984348Y-14006960D01*
X10984348Y-14006960D02*
X10974824Y-13987912D01*
X10974824Y-13987912D02*
X10974824Y-13816484D01*
X11108158Y-14016484D02*
X11089110Y-14006960D01*
X11089110Y-14006960D02*
X11079586Y-13987912D01*
X11079586Y-13987912D02*
X11079586Y-13816484D01*
X11336729Y-14016484D02*
X11336729Y-13816484D01*
X11336729Y-13816484D02*
X11403396Y-13959341D01*
X11403396Y-13959341D02*
X11470062Y-13816484D01*
X11470062Y-13816484D02*
X11470062Y-14016484D01*
X11651015Y-14016484D02*
X11651015Y-13911722D01*
X11651015Y-13911722D02*
X11641491Y-13892674D01*
X11641491Y-13892674D02*
X11622443Y-13883150D01*
X11622443Y-13883150D02*
X11584348Y-13883150D01*
X11584348Y-13883150D02*
X11565301Y-13892674D01*
X11651015Y-14006960D02*
X11631967Y-14016484D01*
X11631967Y-14016484D02*
X11584348Y-14016484D01*
X11584348Y-14016484D02*
X11565301Y-14006960D01*
X11565301Y-14006960D02*
X11555777Y-13987912D01*
X11555777Y-13987912D02*
X11555777Y-13968865D01*
X11555777Y-13968865D02*
X11565301Y-13949817D01*
X11565301Y-13949817D02*
X11584348Y-13940293D01*
X11584348Y-13940293D02*
X11631967Y-13940293D01*
X11631967Y-13940293D02*
X11651015Y-13930769D01*
X11746253Y-13883150D02*
X11746253Y-14083150D01*
X11746253Y-13892674D02*
X11765301Y-13883150D01*
X11765301Y-13883150D02*
X11803396Y-13883150D01*
X11803396Y-13883150D02*
X11822443Y-13892674D01*
X11822443Y-13892674D02*
X11831967Y-13902198D01*
X11831967Y-13902198D02*
X11841491Y-13921246D01*
X11841491Y-13921246D02*
X11841491Y-13978388D01*
X11841491Y-13978388D02*
X11831967Y-13997436D01*
X11831967Y-13997436D02*
X11822443Y-14006960D01*
X11822443Y-14006960D02*
X11803396Y-14016484D01*
X11803396Y-14016484D02*
X11765301Y-14016484D01*
X11765301Y-14016484D02*
X11746253Y-14006960D01*
X11927205Y-13997436D02*
X11936729Y-14006960D01*
X11936729Y-14006960D02*
X11927205Y-14016484D01*
X11927205Y-14016484D02*
X11917682Y-14006960D01*
X11917682Y-14006960D02*
X11927205Y-13997436D01*
X11927205Y-13997436D02*
X11927205Y-14016484D01*
X11927205Y-13892674D02*
X11936729Y-13902198D01*
X11936729Y-13902198D02*
X11927205Y-13911722D01*
X11927205Y-13911722D02*
X11917682Y-13902198D01*
X11917682Y-13902198D02*
X11927205Y-13892674D01*
X11927205Y-13892674D02*
X11927205Y-13911722D01*
X10095000Y-14245000D02*
X10295000Y-14445000D01*
X10295000Y-14245000D02*
X10095000Y-14445000D01*
X10536729Y-14236484D02*
X10660539Y-14236484D01*
X10660539Y-14236484D02*
X10593872Y-14312674D01*
X10593872Y-14312674D02*
X10622444Y-14312674D01*
X10622444Y-14312674D02*
X10641491Y-14322198D01*
X10641491Y-14322198D02*
X10651015Y-14331722D01*
X10651015Y-14331722D02*
X10660539Y-14350769D01*
X10660539Y-14350769D02*
X10660539Y-14398388D01*
X10660539Y-14398388D02*
X10651015Y-14417436D01*
X10651015Y-14417436D02*
X10641491Y-14426960D01*
X10641491Y-14426960D02*
X10622444Y-14436484D01*
X10622444Y-14436484D02*
X10565301Y-14436484D01*
X10565301Y-14436484D02*
X10546253Y-14426960D01*
X10546253Y-14426960D02*
X10536729Y-14417436D01*
X10746253Y-14417436D02*
X10755777Y-14426960D01*
X10755777Y-14426960D02*
X10746253Y-14436484D01*
X10746253Y-14436484D02*
X10736729Y-14426960D01*
X10736729Y-14426960D02*
X10746253Y-14417436D01*
X10746253Y-14417436D02*
X10746253Y-14436484D01*
X10831967Y-14255531D02*
X10841491Y-14246008D01*
X10841491Y-14246008D02*
X10860539Y-14236484D01*
X10860539Y-14236484D02*
X10908158Y-14236484D01*
X10908158Y-14236484D02*
X10927205Y-14246008D01*
X10927205Y-14246008D02*
X10936729Y-14255531D01*
X10936729Y-14255531D02*
X10946253Y-14274579D01*
X10946253Y-14274579D02*
X10946253Y-14293627D01*
X10946253Y-14293627D02*
X10936729Y-14322198D01*
X10936729Y-14322198D02*
X10822444Y-14436484D01*
X10822444Y-14436484D02*
X10946253Y-14436484D01*
X11070063Y-14236484D02*
X11089110Y-14236484D01*
X11089110Y-14236484D02*
X11108158Y-14246008D01*
X11108158Y-14246008D02*
X11117682Y-14255531D01*
X11117682Y-14255531D02*
X11127205Y-14274579D01*
X11127205Y-14274579D02*
X11136729Y-14312674D01*
X11136729Y-14312674D02*
X11136729Y-14360293D01*
X11136729Y-14360293D02*
X11127205Y-14398388D01*
X11127205Y-14398388D02*
X11117682Y-14417436D01*
X11117682Y-14417436D02*
X11108158Y-14426960D01*
X11108158Y-14426960D02*
X11089110Y-14436484D01*
X11089110Y-14436484D02*
X11070063Y-14436484D01*
X11070063Y-14436484D02*
X11051015Y-14426960D01*
X11051015Y-14426960D02*
X11041491Y-14417436D01*
X11041491Y-14417436D02*
X11031967Y-14398388D01*
X11031967Y-14398388D02*
X11022444Y-14360293D01*
X11022444Y-14360293D02*
X11022444Y-14312674D01*
X11022444Y-14312674D02*
X11031967Y-14274579D01*
X11031967Y-14274579D02*
X11041491Y-14255531D01*
X11041491Y-14255531D02*
X11051015Y-14246008D01*
X11051015Y-14246008D02*
X11070063Y-14236484D01*
X11260539Y-14236484D02*
X11279586Y-14236484D01*
X11279586Y-14236484D02*
X11298634Y-14246008D01*
X11298634Y-14246008D02*
X11308158Y-14255531D01*
X11308158Y-14255531D02*
X11317682Y-14274579D01*
X11317682Y-14274579D02*
X11327205Y-14312674D01*
X11327205Y-14312674D02*
X11327205Y-14360293D01*
X11327205Y-14360293D02*
X11317682Y-14398388D01*
X11317682Y-14398388D02*
X11308158Y-14417436D01*
X11308158Y-14417436D02*
X11298634Y-14426960D01*
X11298634Y-14426960D02*
X11279586Y-14436484D01*
X11279586Y-14436484D02*
X11260539Y-14436484D01*
X11260539Y-14436484D02*
X11241491Y-14426960D01*
X11241491Y-14426960D02*
X11231967Y-14417436D01*
X11231967Y-14417436D02*
X11222443Y-14398388D01*
X11222443Y-14398388D02*
X11212920Y-14360293D01*
X11212920Y-14360293D02*
X11212920Y-14312674D01*
X11212920Y-14312674D02*
X11222443Y-14274579D01*
X11222443Y-14274579D02*
X11231967Y-14255531D01*
X11231967Y-14255531D02*
X11241491Y-14246008D01*
X11241491Y-14246008D02*
X11260539Y-14236484D01*
X11412920Y-14436484D02*
X11412920Y-14303150D01*
X11412920Y-14322198D02*
X11422443Y-14312674D01*
X11422443Y-14312674D02*
X11441491Y-14303150D01*
X11441491Y-14303150D02*
X11470063Y-14303150D01*
X11470063Y-14303150D02*
X11489110Y-14312674D01*
X11489110Y-14312674D02*
X11498634Y-14331722D01*
X11498634Y-14331722D02*
X11498634Y-14436484D01*
X11498634Y-14331722D02*
X11508158Y-14312674D01*
X11508158Y-14312674D02*
X11527205Y-14303150D01*
X11527205Y-14303150D02*
X11555777Y-14303150D01*
X11555777Y-14303150D02*
X11574824Y-14312674D01*
X11574824Y-14312674D02*
X11584348Y-14331722D01*
X11584348Y-14331722D02*
X11584348Y-14436484D01*
X11679586Y-14436484D02*
X11679586Y-14303150D01*
X11679586Y-14322198D02*
X11689110Y-14312674D01*
X11689110Y-14312674D02*
X11708158Y-14303150D01*
X11708158Y-14303150D02*
X11736729Y-14303150D01*
X11736729Y-14303150D02*
X11755777Y-14312674D01*
X11755777Y-14312674D02*
X11765301Y-14331722D01*
X11765301Y-14331722D02*
X11765301Y-14436484D01*
X11765301Y-14331722D02*
X11774824Y-14312674D01*
X11774824Y-14312674D02*
X11793872Y-14303150D01*
X11793872Y-14303150D02*
X11822443Y-14303150D01*
X11822443Y-14303150D02*
X11841491Y-14312674D01*
X11841491Y-14312674D02*
X11851015Y-14331722D01*
X11851015Y-14331722D02*
X11851015Y-14436484D01*
X12241491Y-14226960D02*
X12070063Y-14484103D01*
X12498634Y-14236484D02*
X12517682Y-14236484D01*
X12517682Y-14236484D02*
X12536729Y-14246008D01*
X12536729Y-14246008D02*
X12546253Y-14255531D01*
X12546253Y-14255531D02*
X12555777Y-14274579D01*
X12555777Y-14274579D02*
X12565301Y-14312674D01*
X12565301Y-14312674D02*
X12565301Y-14360293D01*
X12565301Y-14360293D02*
X12555777Y-14398388D01*
X12555777Y-14398388D02*
X12546253Y-14417436D01*
X12546253Y-14417436D02*
X12536729Y-14426960D01*
X12536729Y-14426960D02*
X12517682Y-14436484D01*
X12517682Y-14436484D02*
X12498634Y-14436484D01*
X12498634Y-14436484D02*
X12479586Y-14426960D01*
X12479586Y-14426960D02*
X12470063Y-14417436D01*
X12470063Y-14417436D02*
X12460539Y-14398388D01*
X12460539Y-14398388D02*
X12451015Y-14360293D01*
X12451015Y-14360293D02*
X12451015Y-14312674D01*
X12451015Y-14312674D02*
X12460539Y-14274579D01*
X12460539Y-14274579D02*
X12470063Y-14255531D01*
X12470063Y-14255531D02*
X12479586Y-14246008D01*
X12479586Y-14246008D02*
X12498634Y-14236484D01*
X12651015Y-14417436D02*
X12660539Y-14426960D01*
X12660539Y-14426960D02*
X12651015Y-14436484D01*
X12651015Y-14436484D02*
X12641491Y-14426960D01*
X12641491Y-14426960D02*
X12651015Y-14417436D01*
X12651015Y-14417436D02*
X12651015Y-14436484D01*
X12851015Y-14436484D02*
X12736729Y-14436484D01*
X12793872Y-14436484D02*
X12793872Y-14236484D01*
X12793872Y-14236484D02*
X12774825Y-14265055D01*
X12774825Y-14265055D02*
X12755777Y-14284103D01*
X12755777Y-14284103D02*
X12736729Y-14293627D01*
X12927206Y-14255531D02*
X12936729Y-14246008D01*
X12936729Y-14246008D02*
X12955777Y-14236484D01*
X12955777Y-14236484D02*
X13003396Y-14236484D01*
X13003396Y-14236484D02*
X13022444Y-14246008D01*
X13022444Y-14246008D02*
X13031967Y-14255531D01*
X13031967Y-14255531D02*
X13041491Y-14274579D01*
X13041491Y-14274579D02*
X13041491Y-14293627D01*
X13041491Y-14293627D02*
X13031967Y-14322198D01*
X13031967Y-14322198D02*
X12917682Y-14436484D01*
X12917682Y-14436484D02*
X13041491Y-14436484D01*
X13212920Y-14236484D02*
X13174825Y-14236484D01*
X13174825Y-14236484D02*
X13155777Y-14246008D01*
X13155777Y-14246008D02*
X13146253Y-14255531D01*
X13146253Y-14255531D02*
X13127206Y-14284103D01*
X13127206Y-14284103D02*
X13117682Y-14322198D01*
X13117682Y-14322198D02*
X13117682Y-14398388D01*
X13117682Y-14398388D02*
X13127206Y-14417436D01*
X13127206Y-14417436D02*
X13136729Y-14426960D01*
X13136729Y-14426960D02*
X13155777Y-14436484D01*
X13155777Y-14436484D02*
X13193872Y-14436484D01*
X13193872Y-14436484D02*
X13212920Y-14426960D01*
X13212920Y-14426960D02*
X13222444Y-14417436D01*
X13222444Y-14417436D02*
X13231967Y-14398388D01*
X13231967Y-14398388D02*
X13231967Y-14350769D01*
X13231967Y-14350769D02*
X13222444Y-14331722D01*
X13222444Y-14331722D02*
X13212920Y-14322198D01*
X13212920Y-14322198D02*
X13193872Y-14312674D01*
X13193872Y-14312674D02*
X13155777Y-14312674D01*
X13155777Y-14312674D02*
X13136729Y-14322198D01*
X13136729Y-14322198D02*
X13127206Y-14331722D01*
X13127206Y-14331722D02*
X13117682Y-14350769D01*
X13355777Y-14236484D02*
X13374825Y-14236484D01*
X13374825Y-14236484D02*
X13393872Y-14246008D01*
X13393872Y-14246008D02*
X13403396Y-14255531D01*
X13403396Y-14255531D02*
X13412920Y-14274579D01*
X13412920Y-14274579D02*
X13422444Y-14312674D01*
X13422444Y-14312674D02*
X13422444Y-14360293D01*
X13422444Y-14360293D02*
X13412920Y-14398388D01*
X13412920Y-14398388D02*
X13403396Y-14417436D01*
X13403396Y-14417436D02*
X13393872Y-14426960D01*
X13393872Y-14426960D02*
X13374825Y-14436484D01*
X13374825Y-14436484D02*
X13355777Y-14436484D01*
X13355777Y-14436484D02*
X13336729Y-14426960D01*
X13336729Y-14426960D02*
X13327206Y-14417436D01*
X13327206Y-14417436D02*
X13317682Y-14398388D01*
X13317682Y-14398388D02*
X13308158Y-14360293D01*
X13308158Y-14360293D02*
X13308158Y-14312674D01*
X13308158Y-14312674D02*
X13317682Y-14274579D01*
X13317682Y-14274579D02*
X13327206Y-14255531D01*
X13327206Y-14255531D02*
X13336729Y-14246008D01*
X13336729Y-14246008D02*
X13355777Y-14236484D01*
X13498634Y-14236484D02*
X13498634Y-14274579D01*
X13574825Y-14236484D02*
X13574825Y-14274579D01*
X13870063Y-14512674D02*
X13860539Y-14503150D01*
X13860539Y-14503150D02*
X13841491Y-14474579D01*
X13841491Y-14474579D02*
X13831968Y-14455531D01*
X13831968Y-14455531D02*
X13822444Y-14426960D01*
X13822444Y-14426960D02*
X13812920Y-14379341D01*
X13812920Y-14379341D02*
X13812920Y-14341246D01*
X13812920Y-14341246D02*
X13822444Y-14293627D01*
X13822444Y-14293627D02*
X13831968Y-14265055D01*
X13831968Y-14265055D02*
X13841491Y-14246008D01*
X13841491Y-14246008D02*
X13860539Y-14217436D01*
X13860539Y-14217436D02*
X13870063Y-14207912D01*
X14031968Y-14303150D02*
X14031968Y-14436484D01*
X13984348Y-14226960D02*
X13936729Y-14369817D01*
X13936729Y-14369817D02*
X14060539Y-14369817D01*
X14289110Y-14436484D02*
X14289110Y-14236484D01*
X14374825Y-14436484D02*
X14374825Y-14331722D01*
X14374825Y-14331722D02*
X14365301Y-14312674D01*
X14365301Y-14312674D02*
X14346253Y-14303150D01*
X14346253Y-14303150D02*
X14317682Y-14303150D01*
X14317682Y-14303150D02*
X14298634Y-14312674D01*
X14298634Y-14312674D02*
X14289110Y-14322198D01*
X14498634Y-14436484D02*
X14479587Y-14426960D01*
X14479587Y-14426960D02*
X14470063Y-14417436D01*
X14470063Y-14417436D02*
X14460539Y-14398388D01*
X14460539Y-14398388D02*
X14460539Y-14341246D01*
X14460539Y-14341246D02*
X14470063Y-14322198D01*
X14470063Y-14322198D02*
X14479587Y-14312674D01*
X14479587Y-14312674D02*
X14498634Y-14303150D01*
X14498634Y-14303150D02*
X14527206Y-14303150D01*
X14527206Y-14303150D02*
X14546253Y-14312674D01*
X14546253Y-14312674D02*
X14555777Y-14322198D01*
X14555777Y-14322198D02*
X14565301Y-14341246D01*
X14565301Y-14341246D02*
X14565301Y-14398388D01*
X14565301Y-14398388D02*
X14555777Y-14417436D01*
X14555777Y-14417436D02*
X14546253Y-14426960D01*
X14546253Y-14426960D02*
X14527206Y-14436484D01*
X14527206Y-14436484D02*
X14498634Y-14436484D01*
X14679587Y-14436484D02*
X14660539Y-14426960D01*
X14660539Y-14426960D02*
X14651015Y-14407912D01*
X14651015Y-14407912D02*
X14651015Y-14236484D01*
X14831968Y-14426960D02*
X14812920Y-14436484D01*
X14812920Y-14436484D02*
X14774825Y-14436484D01*
X14774825Y-14436484D02*
X14755777Y-14426960D01*
X14755777Y-14426960D02*
X14746253Y-14407912D01*
X14746253Y-14407912D02*
X14746253Y-14331722D01*
X14746253Y-14331722D02*
X14755777Y-14312674D01*
X14755777Y-14312674D02*
X14774825Y-14303150D01*
X14774825Y-14303150D02*
X14812920Y-14303150D01*
X14812920Y-14303150D02*
X14831968Y-14312674D01*
X14831968Y-14312674D02*
X14841491Y-14331722D01*
X14841491Y-14331722D02*
X14841491Y-14350769D01*
X14841491Y-14350769D02*
X14746253Y-14369817D01*
X14917682Y-14426960D02*
X14936730Y-14436484D01*
X14936730Y-14436484D02*
X14974825Y-14436484D01*
X14974825Y-14436484D02*
X14993872Y-14426960D01*
X14993872Y-14426960D02*
X15003396Y-14407912D01*
X15003396Y-14407912D02*
X15003396Y-14398388D01*
X15003396Y-14398388D02*
X14993872Y-14379341D01*
X14993872Y-14379341D02*
X14974825Y-14369817D01*
X14974825Y-14369817D02*
X14946253Y-14369817D01*
X14946253Y-14369817D02*
X14927206Y-14360293D01*
X14927206Y-14360293D02*
X14917682Y-14341246D01*
X14917682Y-14341246D02*
X14917682Y-14331722D01*
X14917682Y-14331722D02*
X14927206Y-14312674D01*
X14927206Y-14312674D02*
X14946253Y-14303150D01*
X14946253Y-14303150D02*
X14974825Y-14303150D01*
X14974825Y-14303150D02*
X14993872Y-14312674D01*
X15070063Y-14512674D02*
X15079587Y-14503150D01*
X15079587Y-14503150D02*
X15098634Y-14474579D01*
X15098634Y-14474579D02*
X15108158Y-14455531D01*
X15108158Y-14455531D02*
X15117682Y-14426960D01*
X15117682Y-14426960D02*
X15127206Y-14379341D01*
X15127206Y-14379341D02*
X15127206Y-14341246D01*
X15127206Y-14341246D02*
X15117682Y-14293627D01*
X15117682Y-14293627D02*
X15108158Y-14265055D01*
X15108158Y-14265055D02*
X15098634Y-14246008D01*
X15098634Y-14246008D02*
X15079587Y-14217436D01*
X15079587Y-14217436D02*
X15070063Y-14207912D01*
X15431968Y-14512674D02*
X15422444Y-14503150D01*
X15422444Y-14503150D02*
X15403396Y-14474579D01*
X15403396Y-14474579D02*
X15393872Y-14455531D01*
X15393872Y-14455531D02*
X15384349Y-14426960D01*
X15384349Y-14426960D02*
X15374825Y-14379341D01*
X15374825Y-14379341D02*
X15374825Y-14341246D01*
X15374825Y-14341246D02*
X15384349Y-14293627D01*
X15384349Y-14293627D02*
X15393872Y-14265055D01*
X15393872Y-14265055D02*
X15403396Y-14246008D01*
X15403396Y-14246008D02*
X15422444Y-14217436D01*
X15422444Y-14217436D02*
X15431968Y-14207912D01*
X15508158Y-14303150D02*
X15508158Y-14436484D01*
X15508158Y-14322198D02*
X15517682Y-14312674D01*
X15517682Y-14312674D02*
X15536730Y-14303150D01*
X15536730Y-14303150D02*
X15565301Y-14303150D01*
X15565301Y-14303150D02*
X15584349Y-14312674D01*
X15584349Y-14312674D02*
X15593872Y-14331722D01*
X15593872Y-14331722D02*
X15593872Y-14436484D01*
X15717682Y-14436484D02*
X15698634Y-14426960D01*
X15698634Y-14426960D02*
X15689111Y-14417436D01*
X15689111Y-14417436D02*
X15679587Y-14398388D01*
X15679587Y-14398388D02*
X15679587Y-14341246D01*
X15679587Y-14341246D02*
X15689111Y-14322198D01*
X15689111Y-14322198D02*
X15698634Y-14312674D01*
X15698634Y-14312674D02*
X15717682Y-14303150D01*
X15717682Y-14303150D02*
X15746253Y-14303150D01*
X15746253Y-14303150D02*
X15765301Y-14312674D01*
X15765301Y-14312674D02*
X15774825Y-14322198D01*
X15774825Y-14322198D02*
X15784349Y-14341246D01*
X15784349Y-14341246D02*
X15784349Y-14398388D01*
X15784349Y-14398388D02*
X15774825Y-14417436D01*
X15774825Y-14417436D02*
X15765301Y-14426960D01*
X15765301Y-14426960D02*
X15746253Y-14436484D01*
X15746253Y-14436484D02*
X15717682Y-14436484D01*
X15841492Y-14303150D02*
X15917682Y-14303150D01*
X15870063Y-14236484D02*
X15870063Y-14407912D01*
X15870063Y-14407912D02*
X15879587Y-14426960D01*
X15879587Y-14426960D02*
X15898634Y-14436484D01*
X15898634Y-14436484D02*
X15917682Y-14436484D01*
X16136730Y-14303150D02*
X16136730Y-14503150D01*
X16136730Y-14312674D02*
X16155777Y-14303150D01*
X16155777Y-14303150D02*
X16193873Y-14303150D01*
X16193873Y-14303150D02*
X16212920Y-14312674D01*
X16212920Y-14312674D02*
X16222444Y-14322198D01*
X16222444Y-14322198D02*
X16231968Y-14341246D01*
X16231968Y-14341246D02*
X16231968Y-14398388D01*
X16231968Y-14398388D02*
X16222444Y-14417436D01*
X16222444Y-14417436D02*
X16212920Y-14426960D01*
X16212920Y-14426960D02*
X16193873Y-14436484D01*
X16193873Y-14436484D02*
X16155777Y-14436484D01*
X16155777Y-14436484D02*
X16136730Y-14426960D01*
X16346253Y-14436484D02*
X16327206Y-14426960D01*
X16327206Y-14426960D02*
X16317682Y-14407912D01*
X16317682Y-14407912D02*
X16317682Y-14236484D01*
X16508158Y-14436484D02*
X16508158Y-14331722D01*
X16508158Y-14331722D02*
X16498634Y-14312674D01*
X16498634Y-14312674D02*
X16479587Y-14303150D01*
X16479587Y-14303150D02*
X16441492Y-14303150D01*
X16441492Y-14303150D02*
X16422444Y-14312674D01*
X16508158Y-14426960D02*
X16489111Y-14436484D01*
X16489111Y-14436484D02*
X16441492Y-14436484D01*
X16441492Y-14436484D02*
X16422444Y-14426960D01*
X16422444Y-14426960D02*
X16412920Y-14407912D01*
X16412920Y-14407912D02*
X16412920Y-14388865D01*
X16412920Y-14388865D02*
X16422444Y-14369817D01*
X16422444Y-14369817D02*
X16441492Y-14360293D01*
X16441492Y-14360293D02*
X16489111Y-14360293D01*
X16489111Y-14360293D02*
X16508158Y-14350769D01*
X16574825Y-14303150D02*
X16651015Y-14303150D01*
X16603396Y-14236484D02*
X16603396Y-14407912D01*
X16603396Y-14407912D02*
X16612920Y-14426960D01*
X16612920Y-14426960D02*
X16631968Y-14436484D01*
X16631968Y-14436484D02*
X16651015Y-14436484D01*
X16793873Y-14426960D02*
X16774825Y-14436484D01*
X16774825Y-14436484D02*
X16736730Y-14436484D01*
X16736730Y-14436484D02*
X16717682Y-14426960D01*
X16717682Y-14426960D02*
X16708158Y-14407912D01*
X16708158Y-14407912D02*
X16708158Y-14331722D01*
X16708158Y-14331722D02*
X16717682Y-14312674D01*
X16717682Y-14312674D02*
X16736730Y-14303150D01*
X16736730Y-14303150D02*
X16774825Y-14303150D01*
X16774825Y-14303150D02*
X16793873Y-14312674D01*
X16793873Y-14312674D02*
X16803396Y-14331722D01*
X16803396Y-14331722D02*
X16803396Y-14350769D01*
X16803396Y-14350769D02*
X16708158Y-14369817D01*
X16974825Y-14436484D02*
X16974825Y-14236484D01*
X16974825Y-14426960D02*
X16955777Y-14436484D01*
X16955777Y-14436484D02*
X16917682Y-14436484D01*
X16917682Y-14436484D02*
X16898635Y-14426960D01*
X16898635Y-14426960D02*
X16889111Y-14417436D01*
X16889111Y-14417436D02*
X16879587Y-14398388D01*
X16879587Y-14398388D02*
X16879587Y-14341246D01*
X16879587Y-14341246D02*
X16889111Y-14322198D01*
X16889111Y-14322198D02*
X16898635Y-14312674D01*
X16898635Y-14312674D02*
X16917682Y-14303150D01*
X16917682Y-14303150D02*
X16955777Y-14303150D01*
X16955777Y-14303150D02*
X16974825Y-14312674D01*
X17051016Y-14512674D02*
X17060539Y-14503150D01*
X17060539Y-14503150D02*
X17079587Y-14474579D01*
X17079587Y-14474579D02*
X17089111Y-14455531D01*
X17089111Y-14455531D02*
X17098635Y-14426960D01*
X17098635Y-14426960D02*
X17108158Y-14379341D01*
X17108158Y-14379341D02*
X17108158Y-14341246D01*
X17108158Y-14341246D02*
X17098635Y-14293627D01*
X17098635Y-14293627D02*
X17089111Y-14265055D01*
X17089111Y-14265055D02*
X17079587Y-14246008D01*
X17079587Y-14246008D02*
X17060539Y-14217436D01*
X17060539Y-14217436D02*
X17051016Y-14207912D01*
M02*
