G04 #@! TF.GenerationSoftware,KiCad,Pcbnew,7.0.10-dirty*
G04 #@! TF.CreationDate,2024-02-04T15:29:54-03:00*
G04 #@! TF.ProjectId,simetrica,73696d65-7472-4696-9361-2e6b69636164,Version 2.0*
G04 #@! TF.SameCoordinates,Original*
G04 #@! TF.FileFunction,Legend,Bot*
G04 #@! TF.FilePolarity,Positive*
%FSLAX46Y46*%
G04 Gerber Fmt 4.6, Leading zero omitted, Abs format (unit mm)*
G04 Created by KiCad (PCBNEW 7.0.10-dirty) date 2024-02-04 15:29:54*
%MOMM*%
%LPD*%
G01*
G04 APERTURE LIST*
G04 Aperture macros list*
%AMRoundRect*
0 Rectangle with rounded corners*
0 $1 Rounding radius*
0 $2 $3 $4 $5 $6 $7 $8 $9 X,Y pos of 4 corners*
0 Add a 4 corners polygon primitive as box body*
4,1,4,$2,$3,$4,$5,$6,$7,$8,$9,$2,$3,0*
0 Add four circle primitives for the rounded corners*
1,1,$1+$1,$2,$3*
1,1,$1+$1,$4,$5*
1,1,$1+$1,$6,$7*
1,1,$1+$1,$8,$9*
0 Add four rect primitives between the rounded corners*
20,1,$1+$1,$2,$3,$4,$5,0*
20,1,$1+$1,$4,$5,$6,$7,0*
20,1,$1+$1,$6,$7,$8,$9,0*
20,1,$1+$1,$8,$9,$2,$3,0*%
G04 Aperture macros list end*
%ADD10C,0.200000*%
%ADD11C,3.200000*%
%ADD12C,2.000000*%
%ADD13O,2.000000X2.000000*%
%ADD14RoundRect,0.650000X-0.650000X-0.650000X0.650000X-0.650000X0.650000X0.650000X-0.650000X0.650000X0*%
%ADD15C,2.600000*%
%ADD16R,2.000000X2.000000*%
%ADD17R,2.200000X2.200000*%
%ADD18O,2.200000X2.200000*%
%ADD19R,1.800000X1.800000*%
%ADD20C,1.800000*%
%ADD21R,2.600000X2.600000*%
%ADD22RoundRect,0.650000X0.650000X0.650000X-0.650000X0.650000X-0.650000X-0.650000X0.650000X-0.650000X0*%
%ADD23R,2.400000X2.400000*%
%ADD24C,2.400000*%
%ADD25R,1.600000X1.600000*%
%ADD26O,1.600000X1.600000*%
G04 APERTURE END LIST*
D10*
X153591028Y-70708720D02*
X152091028Y-70708720D01*
X152091028Y-70708720D02*
X152091028Y-71065863D01*
X152091028Y-71065863D02*
X152162457Y-71280149D01*
X152162457Y-71280149D02*
X152305314Y-71423006D01*
X152305314Y-71423006D02*
X152448171Y-71494435D01*
X152448171Y-71494435D02*
X152733885Y-71565863D01*
X152733885Y-71565863D02*
X152948171Y-71565863D01*
X152948171Y-71565863D02*
X153233885Y-71494435D01*
X153233885Y-71494435D02*
X153376742Y-71423006D01*
X153376742Y-71423006D02*
X153519600Y-71280149D01*
X153519600Y-71280149D02*
X153591028Y-71065863D01*
X153591028Y-71065863D02*
X153591028Y-70708720D01*
X153519600Y-72780149D02*
X153591028Y-72637292D01*
X153591028Y-72637292D02*
X153591028Y-72351578D01*
X153591028Y-72351578D02*
X153519600Y-72208720D01*
X153519600Y-72208720D02*
X153376742Y-72137292D01*
X153376742Y-72137292D02*
X152805314Y-72137292D01*
X152805314Y-72137292D02*
X152662457Y-72208720D01*
X152662457Y-72208720D02*
X152591028Y-72351578D01*
X152591028Y-72351578D02*
X152591028Y-72637292D01*
X152591028Y-72637292D02*
X152662457Y-72780149D01*
X152662457Y-72780149D02*
X152805314Y-72851578D01*
X152805314Y-72851578D02*
X152948171Y-72851578D01*
X152948171Y-72851578D02*
X153091028Y-72137292D01*
X153519600Y-73423006D02*
X153591028Y-73565863D01*
X153591028Y-73565863D02*
X153591028Y-73851577D01*
X153591028Y-73851577D02*
X153519600Y-73994434D01*
X153519600Y-73994434D02*
X153376742Y-74065863D01*
X153376742Y-74065863D02*
X153305314Y-74065863D01*
X153305314Y-74065863D02*
X153162457Y-73994434D01*
X153162457Y-73994434D02*
X153091028Y-73851577D01*
X153091028Y-73851577D02*
X153091028Y-73637292D01*
X153091028Y-73637292D02*
X153019600Y-73494434D01*
X153019600Y-73494434D02*
X152876742Y-73423006D01*
X152876742Y-73423006D02*
X152805314Y-73423006D01*
X152805314Y-73423006D02*
X152662457Y-73494434D01*
X152662457Y-73494434D02*
X152591028Y-73637292D01*
X152591028Y-73637292D02*
X152591028Y-73851577D01*
X152591028Y-73851577D02*
X152662457Y-73994434D01*
X153591028Y-74708720D02*
X152591028Y-74708720D01*
X152091028Y-74708720D02*
X152162457Y-74637292D01*
X152162457Y-74637292D02*
X152233885Y-74708720D01*
X152233885Y-74708720D02*
X152162457Y-74780149D01*
X152162457Y-74780149D02*
X152091028Y-74708720D01*
X152091028Y-74708720D02*
X152233885Y-74708720D01*
X152591028Y-76065864D02*
X153805314Y-76065864D01*
X153805314Y-76065864D02*
X153948171Y-75994435D01*
X153948171Y-75994435D02*
X154019600Y-75923006D01*
X154019600Y-75923006D02*
X154091028Y-75780149D01*
X154091028Y-75780149D02*
X154091028Y-75565864D01*
X154091028Y-75565864D02*
X154019600Y-75423006D01*
X153519600Y-76065864D02*
X153591028Y-75923006D01*
X153591028Y-75923006D02*
X153591028Y-75637292D01*
X153591028Y-75637292D02*
X153519600Y-75494435D01*
X153519600Y-75494435D02*
X153448171Y-75423006D01*
X153448171Y-75423006D02*
X153305314Y-75351578D01*
X153305314Y-75351578D02*
X152876742Y-75351578D01*
X152876742Y-75351578D02*
X152733885Y-75423006D01*
X152733885Y-75423006D02*
X152662457Y-75494435D01*
X152662457Y-75494435D02*
X152591028Y-75637292D01*
X152591028Y-75637292D02*
X152591028Y-75923006D01*
X152591028Y-75923006D02*
X152662457Y-76065864D01*
X152591028Y-76780149D02*
X153591028Y-76780149D01*
X152733885Y-76780149D02*
X152662457Y-76851578D01*
X152662457Y-76851578D02*
X152591028Y-76994435D01*
X152591028Y-76994435D02*
X152591028Y-77208721D01*
X152591028Y-77208721D02*
X152662457Y-77351578D01*
X152662457Y-77351578D02*
X152805314Y-77423007D01*
X152805314Y-77423007D02*
X153591028Y-77423007D01*
X153519600Y-78708721D02*
X153591028Y-78565864D01*
X153591028Y-78565864D02*
X153591028Y-78280150D01*
X153591028Y-78280150D02*
X153519600Y-78137292D01*
X153519600Y-78137292D02*
X153376742Y-78065864D01*
X153376742Y-78065864D02*
X152805314Y-78065864D01*
X152805314Y-78065864D02*
X152662457Y-78137292D01*
X152662457Y-78137292D02*
X152591028Y-78280150D01*
X152591028Y-78280150D02*
X152591028Y-78565864D01*
X152591028Y-78565864D02*
X152662457Y-78708721D01*
X152662457Y-78708721D02*
X152805314Y-78780150D01*
X152805314Y-78780150D02*
X152948171Y-78780150D01*
X152948171Y-78780150D02*
X153091028Y-78065864D01*
X153591028Y-80065864D02*
X152091028Y-80065864D01*
X153519600Y-80065864D02*
X153591028Y-79923006D01*
X153591028Y-79923006D02*
X153591028Y-79637292D01*
X153591028Y-79637292D02*
X153519600Y-79494435D01*
X153519600Y-79494435D02*
X153448171Y-79423006D01*
X153448171Y-79423006D02*
X153305314Y-79351578D01*
X153305314Y-79351578D02*
X152876742Y-79351578D01*
X152876742Y-79351578D02*
X152733885Y-79423006D01*
X152733885Y-79423006D02*
X152662457Y-79494435D01*
X152662457Y-79494435D02*
X152591028Y-79637292D01*
X152591028Y-79637292D02*
X152591028Y-79923006D01*
X152591028Y-79923006D02*
X152662457Y-80065864D01*
X153591028Y-81923006D02*
X152091028Y-81923006D01*
X152662457Y-81923006D02*
X152591028Y-82065864D01*
X152591028Y-82065864D02*
X152591028Y-82351578D01*
X152591028Y-82351578D02*
X152662457Y-82494435D01*
X152662457Y-82494435D02*
X152733885Y-82565864D01*
X152733885Y-82565864D02*
X152876742Y-82637292D01*
X152876742Y-82637292D02*
X153305314Y-82637292D01*
X153305314Y-82637292D02*
X153448171Y-82565864D01*
X153448171Y-82565864D02*
X153519600Y-82494435D01*
X153519600Y-82494435D02*
X153591028Y-82351578D01*
X153591028Y-82351578D02*
X153591028Y-82065864D01*
X153591028Y-82065864D02*
X153519600Y-81923006D01*
X152591028Y-83137292D02*
X153591028Y-83494435D01*
X152591028Y-83851578D02*
X153591028Y-83494435D01*
X153591028Y-83494435D02*
X153948171Y-83351578D01*
X153948171Y-83351578D02*
X154019600Y-83280149D01*
X154019600Y-83280149D02*
X154091028Y-83137292D01*
X153162457Y-85494435D02*
X153162457Y-86208721D01*
X153591028Y-85351578D02*
X152091028Y-85851578D01*
X152091028Y-85851578D02*
X153591028Y-86351578D01*
X153448171Y-86851577D02*
X153519600Y-86923006D01*
X153519600Y-86923006D02*
X153591028Y-86851577D01*
X153591028Y-86851577D02*
X153519600Y-86780149D01*
X153519600Y-86780149D02*
X153448171Y-86851577D01*
X153448171Y-86851577D02*
X153591028Y-86851577D01*
X152091028Y-87351578D02*
X152091028Y-88208721D01*
X153591028Y-87780149D02*
X152091028Y-87780149D01*
X153448171Y-88708720D02*
X153519600Y-88780149D01*
X153519600Y-88780149D02*
X153591028Y-88708720D01*
X153591028Y-88708720D02*
X153519600Y-88637292D01*
X153519600Y-88637292D02*
X153448171Y-88708720D01*
X153448171Y-88708720D02*
X153591028Y-88708720D01*
X153591028Y-90565863D02*
X152091028Y-90565863D01*
X152091028Y-90565863D02*
X152091028Y-90923006D01*
X152091028Y-90923006D02*
X152162457Y-91137292D01*
X152162457Y-91137292D02*
X152305314Y-91280149D01*
X152305314Y-91280149D02*
X152448171Y-91351578D01*
X152448171Y-91351578D02*
X152733885Y-91423006D01*
X152733885Y-91423006D02*
X152948171Y-91423006D01*
X152948171Y-91423006D02*
X153233885Y-91351578D01*
X153233885Y-91351578D02*
X153376742Y-91280149D01*
X153376742Y-91280149D02*
X153519600Y-91137292D01*
X153519600Y-91137292D02*
X153591028Y-90923006D01*
X153591028Y-90923006D02*
X153591028Y-90565863D01*
X153591028Y-92708721D02*
X152805314Y-92708721D01*
X152805314Y-92708721D02*
X152662457Y-92637292D01*
X152662457Y-92637292D02*
X152591028Y-92494435D01*
X152591028Y-92494435D02*
X152591028Y-92208721D01*
X152591028Y-92208721D02*
X152662457Y-92065863D01*
X153519600Y-92708721D02*
X153591028Y-92565863D01*
X153591028Y-92565863D02*
X153591028Y-92208721D01*
X153591028Y-92208721D02*
X153519600Y-92065863D01*
X153519600Y-92065863D02*
X153376742Y-91994435D01*
X153376742Y-91994435D02*
X153233885Y-91994435D01*
X153233885Y-91994435D02*
X153091028Y-92065863D01*
X153091028Y-92065863D02*
X153019600Y-92208721D01*
X153019600Y-92208721D02*
X153019600Y-92565863D01*
X153019600Y-92565863D02*
X152948171Y-92708721D01*
X152591028Y-93208721D02*
X152591028Y-93780149D01*
X152091028Y-93423006D02*
X153376742Y-93423006D01*
X153376742Y-93423006D02*
X153519600Y-93494435D01*
X153519600Y-93494435D02*
X153591028Y-93637292D01*
X153591028Y-93637292D02*
X153591028Y-93780149D01*
X153519600Y-94851578D02*
X153591028Y-94708721D01*
X153591028Y-94708721D02*
X153591028Y-94423007D01*
X153591028Y-94423007D02*
X153519600Y-94280149D01*
X153519600Y-94280149D02*
X153376742Y-94208721D01*
X153376742Y-94208721D02*
X152805314Y-94208721D01*
X152805314Y-94208721D02*
X152662457Y-94280149D01*
X152662457Y-94280149D02*
X152591028Y-94423007D01*
X152591028Y-94423007D02*
X152591028Y-94708721D01*
X152591028Y-94708721D02*
X152662457Y-94851578D01*
X152662457Y-94851578D02*
X152805314Y-94923007D01*
X152805314Y-94923007D02*
X152948171Y-94923007D01*
X152948171Y-94923007D02*
X153091028Y-94208721D01*
X153448171Y-95565863D02*
X153519600Y-95637292D01*
X153519600Y-95637292D02*
X153591028Y-95565863D01*
X153591028Y-95565863D02*
X153519600Y-95494435D01*
X153519600Y-95494435D02*
X153448171Y-95565863D01*
X153448171Y-95565863D02*
X153591028Y-95565863D01*
X152662457Y-95565863D02*
X152733885Y-95637292D01*
X152733885Y-95637292D02*
X152805314Y-95565863D01*
X152805314Y-95565863D02*
X152733885Y-95494435D01*
X152733885Y-95494435D02*
X152662457Y-95565863D01*
X152662457Y-95565863D02*
X152805314Y-95565863D01*
X152091028Y-96565864D02*
X152091028Y-96708721D01*
X152091028Y-96708721D02*
X152162457Y-96851578D01*
X152162457Y-96851578D02*
X152233885Y-96923007D01*
X152233885Y-96923007D02*
X152376742Y-96994435D01*
X152376742Y-96994435D02*
X152662457Y-97065864D01*
X152662457Y-97065864D02*
X153019600Y-97065864D01*
X153019600Y-97065864D02*
X153305314Y-96994435D01*
X153305314Y-96994435D02*
X153448171Y-96923007D01*
X153448171Y-96923007D02*
X153519600Y-96851578D01*
X153519600Y-96851578D02*
X153591028Y-96708721D01*
X153591028Y-96708721D02*
X153591028Y-96565864D01*
X153591028Y-96565864D02*
X153519600Y-96423007D01*
X153519600Y-96423007D02*
X153448171Y-96351578D01*
X153448171Y-96351578D02*
X153305314Y-96280149D01*
X153305314Y-96280149D02*
X153019600Y-96208721D01*
X153019600Y-96208721D02*
X152662457Y-96208721D01*
X152662457Y-96208721D02*
X152376742Y-96280149D01*
X152376742Y-96280149D02*
X152233885Y-96351578D01*
X152233885Y-96351578D02*
X152162457Y-96423007D01*
X152162457Y-96423007D02*
X152091028Y-96565864D01*
X152591028Y-98351578D02*
X153591028Y-98351578D01*
X152019600Y-97994435D02*
X153091028Y-97637292D01*
X153091028Y-97637292D02*
X153091028Y-98565863D01*
X153733885Y-98780149D02*
X153733885Y-99923006D01*
X152091028Y-100565863D02*
X152091028Y-100708720D01*
X152091028Y-100708720D02*
X152162457Y-100851577D01*
X152162457Y-100851577D02*
X152233885Y-100923006D01*
X152233885Y-100923006D02*
X152376742Y-100994434D01*
X152376742Y-100994434D02*
X152662457Y-101065863D01*
X152662457Y-101065863D02*
X153019600Y-101065863D01*
X153019600Y-101065863D02*
X153305314Y-100994434D01*
X153305314Y-100994434D02*
X153448171Y-100923006D01*
X153448171Y-100923006D02*
X153519600Y-100851577D01*
X153519600Y-100851577D02*
X153591028Y-100708720D01*
X153591028Y-100708720D02*
X153591028Y-100565863D01*
X153591028Y-100565863D02*
X153519600Y-100423006D01*
X153519600Y-100423006D02*
X153448171Y-100351577D01*
X153448171Y-100351577D02*
X153305314Y-100280148D01*
X153305314Y-100280148D02*
X153019600Y-100208720D01*
X153019600Y-100208720D02*
X152662457Y-100208720D01*
X152662457Y-100208720D02*
X152376742Y-100280148D01*
X152376742Y-100280148D02*
X152233885Y-100351577D01*
X152233885Y-100351577D02*
X152162457Y-100423006D01*
X152162457Y-100423006D02*
X152091028Y-100565863D01*
X152233885Y-101637291D02*
X152162457Y-101708719D01*
X152162457Y-101708719D02*
X152091028Y-101851577D01*
X152091028Y-101851577D02*
X152091028Y-102208719D01*
X152091028Y-102208719D02*
X152162457Y-102351577D01*
X152162457Y-102351577D02*
X152233885Y-102423005D01*
X152233885Y-102423005D02*
X152376742Y-102494434D01*
X152376742Y-102494434D02*
X152519600Y-102494434D01*
X152519600Y-102494434D02*
X152733885Y-102423005D01*
X152733885Y-102423005D02*
X153591028Y-101565862D01*
X153591028Y-101565862D02*
X153591028Y-102494434D01*
X153733885Y-102780148D02*
X153733885Y-103923005D01*
X152233885Y-104208719D02*
X152162457Y-104280147D01*
X152162457Y-104280147D02*
X152091028Y-104423005D01*
X152091028Y-104423005D02*
X152091028Y-104780147D01*
X152091028Y-104780147D02*
X152162457Y-104923005D01*
X152162457Y-104923005D02*
X152233885Y-104994433D01*
X152233885Y-104994433D02*
X152376742Y-105065862D01*
X152376742Y-105065862D02*
X152519600Y-105065862D01*
X152519600Y-105065862D02*
X152733885Y-104994433D01*
X152733885Y-104994433D02*
X153591028Y-104137290D01*
X153591028Y-104137290D02*
X153591028Y-105065862D01*
X152591028Y-106351576D02*
X153591028Y-106351576D01*
X152019600Y-105994433D02*
X153091028Y-105637290D01*
X153091028Y-105637290D02*
X153091028Y-106565861D01*
X154506028Y-79637291D02*
X156006028Y-80137291D01*
X156006028Y-80137291D02*
X154506028Y-80637291D01*
X155934600Y-81708719D02*
X156006028Y-81565862D01*
X156006028Y-81565862D02*
X156006028Y-81280148D01*
X156006028Y-81280148D02*
X155934600Y-81137290D01*
X155934600Y-81137290D02*
X155791742Y-81065862D01*
X155791742Y-81065862D02*
X155220314Y-81065862D01*
X155220314Y-81065862D02*
X155077457Y-81137290D01*
X155077457Y-81137290D02*
X155006028Y-81280148D01*
X155006028Y-81280148D02*
X155006028Y-81565862D01*
X155006028Y-81565862D02*
X155077457Y-81708719D01*
X155077457Y-81708719D02*
X155220314Y-81780148D01*
X155220314Y-81780148D02*
X155363171Y-81780148D01*
X155363171Y-81780148D02*
X155506028Y-81065862D01*
X156006028Y-82423004D02*
X155006028Y-82423004D01*
X155291742Y-82423004D02*
X155148885Y-82494433D01*
X155148885Y-82494433D02*
X155077457Y-82565862D01*
X155077457Y-82565862D02*
X155006028Y-82708719D01*
X155006028Y-82708719D02*
X155006028Y-82851576D01*
X155934600Y-83280147D02*
X156006028Y-83423004D01*
X156006028Y-83423004D02*
X156006028Y-83708718D01*
X156006028Y-83708718D02*
X155934600Y-83851575D01*
X155934600Y-83851575D02*
X155791742Y-83923004D01*
X155791742Y-83923004D02*
X155720314Y-83923004D01*
X155720314Y-83923004D02*
X155577457Y-83851575D01*
X155577457Y-83851575D02*
X155506028Y-83708718D01*
X155506028Y-83708718D02*
X155506028Y-83494433D01*
X155506028Y-83494433D02*
X155434600Y-83351575D01*
X155434600Y-83351575D02*
X155291742Y-83280147D01*
X155291742Y-83280147D02*
X155220314Y-83280147D01*
X155220314Y-83280147D02*
X155077457Y-83351575D01*
X155077457Y-83351575D02*
X155006028Y-83494433D01*
X155006028Y-83494433D02*
X155006028Y-83708718D01*
X155006028Y-83708718D02*
X155077457Y-83851575D01*
X156006028Y-84565861D02*
X155006028Y-84565861D01*
X154506028Y-84565861D02*
X154577457Y-84494433D01*
X154577457Y-84494433D02*
X154648885Y-84565861D01*
X154648885Y-84565861D02*
X154577457Y-84637290D01*
X154577457Y-84637290D02*
X154506028Y-84565861D01*
X154506028Y-84565861D02*
X154648885Y-84565861D01*
X156006028Y-85494433D02*
X155934600Y-85351576D01*
X155934600Y-85351576D02*
X155863171Y-85280147D01*
X155863171Y-85280147D02*
X155720314Y-85208719D01*
X155720314Y-85208719D02*
X155291742Y-85208719D01*
X155291742Y-85208719D02*
X155148885Y-85280147D01*
X155148885Y-85280147D02*
X155077457Y-85351576D01*
X155077457Y-85351576D02*
X155006028Y-85494433D01*
X155006028Y-85494433D02*
X155006028Y-85708719D01*
X155006028Y-85708719D02*
X155077457Y-85851576D01*
X155077457Y-85851576D02*
X155148885Y-85923005D01*
X155148885Y-85923005D02*
X155291742Y-85994433D01*
X155291742Y-85994433D02*
X155720314Y-85994433D01*
X155720314Y-85994433D02*
X155863171Y-85923005D01*
X155863171Y-85923005D02*
X155934600Y-85851576D01*
X155934600Y-85851576D02*
X156006028Y-85708719D01*
X156006028Y-85708719D02*
X156006028Y-85494433D01*
X155006028Y-86637290D02*
X156006028Y-86637290D01*
X155148885Y-86637290D02*
X155077457Y-86708719D01*
X155077457Y-86708719D02*
X155006028Y-86851576D01*
X155006028Y-86851576D02*
X155006028Y-87065862D01*
X155006028Y-87065862D02*
X155077457Y-87208719D01*
X155077457Y-87208719D02*
X155220314Y-87280148D01*
X155220314Y-87280148D02*
X156006028Y-87280148D01*
X155863171Y-87994433D02*
X155934600Y-88065862D01*
X155934600Y-88065862D02*
X156006028Y-87994433D01*
X156006028Y-87994433D02*
X155934600Y-87923005D01*
X155934600Y-87923005D02*
X155863171Y-87994433D01*
X155863171Y-87994433D02*
X156006028Y-87994433D01*
X155077457Y-87994433D02*
X155148885Y-88065862D01*
X155148885Y-88065862D02*
X155220314Y-87994433D01*
X155220314Y-87994433D02*
X155148885Y-87923005D01*
X155148885Y-87923005D02*
X155077457Y-87994433D01*
X155077457Y-87994433D02*
X155220314Y-87994433D01*
X154648885Y-88637291D02*
X154577457Y-88708719D01*
X154577457Y-88708719D02*
X154506028Y-88851577D01*
X154506028Y-88851577D02*
X154506028Y-89208719D01*
X154506028Y-89208719D02*
X154577457Y-89351577D01*
X154577457Y-89351577D02*
X154648885Y-89423005D01*
X154648885Y-89423005D02*
X154791742Y-89494434D01*
X154791742Y-89494434D02*
X154934600Y-89494434D01*
X154934600Y-89494434D02*
X155148885Y-89423005D01*
X155148885Y-89423005D02*
X156006028Y-88565862D01*
X156006028Y-88565862D02*
X156006028Y-89494434D01*
X155863171Y-90137290D02*
X155934600Y-90208719D01*
X155934600Y-90208719D02*
X156006028Y-90137290D01*
X156006028Y-90137290D02*
X155934600Y-90065862D01*
X155934600Y-90065862D02*
X155863171Y-90137290D01*
X155863171Y-90137290D02*
X156006028Y-90137290D01*
X154506028Y-91137291D02*
X154506028Y-91280148D01*
X154506028Y-91280148D02*
X154577457Y-91423005D01*
X154577457Y-91423005D02*
X154648885Y-91494434D01*
X154648885Y-91494434D02*
X154791742Y-91565862D01*
X154791742Y-91565862D02*
X155077457Y-91637291D01*
X155077457Y-91637291D02*
X155434600Y-91637291D01*
X155434600Y-91637291D02*
X155720314Y-91565862D01*
X155720314Y-91565862D02*
X155863171Y-91494434D01*
X155863171Y-91494434D02*
X155934600Y-91423005D01*
X155934600Y-91423005D02*
X156006028Y-91280148D01*
X156006028Y-91280148D02*
X156006028Y-91137291D01*
X156006028Y-91137291D02*
X155934600Y-90994434D01*
X155934600Y-90994434D02*
X155863171Y-90923005D01*
X155863171Y-90923005D02*
X155720314Y-90851576D01*
X155720314Y-90851576D02*
X155434600Y-90780148D01*
X155434600Y-90780148D02*
X155077457Y-90780148D01*
X155077457Y-90780148D02*
X154791742Y-90851576D01*
X154791742Y-90851576D02*
X154648885Y-90923005D01*
X154648885Y-90923005D02*
X154577457Y-90994434D01*
X154577457Y-90994434D02*
X154506028Y-91137291D01*
X150664600Y-65227292D02*
X150736028Y-65441578D01*
X150736028Y-65441578D02*
X150736028Y-65798720D01*
X150736028Y-65798720D02*
X150664600Y-65941578D01*
X150664600Y-65941578D02*
X150593171Y-66013006D01*
X150593171Y-66013006D02*
X150450314Y-66084435D01*
X150450314Y-66084435D02*
X150307457Y-66084435D01*
X150307457Y-66084435D02*
X150164600Y-66013006D01*
X150164600Y-66013006D02*
X150093171Y-65941578D01*
X150093171Y-65941578D02*
X150021742Y-65798720D01*
X150021742Y-65798720D02*
X149950314Y-65513006D01*
X149950314Y-65513006D02*
X149878885Y-65370149D01*
X149878885Y-65370149D02*
X149807457Y-65298720D01*
X149807457Y-65298720D02*
X149664600Y-65227292D01*
X149664600Y-65227292D02*
X149521742Y-65227292D01*
X149521742Y-65227292D02*
X149378885Y-65298720D01*
X149378885Y-65298720D02*
X149307457Y-65370149D01*
X149307457Y-65370149D02*
X149236028Y-65513006D01*
X149236028Y-65513006D02*
X149236028Y-65870149D01*
X149236028Y-65870149D02*
X149307457Y-66084435D01*
X149736028Y-66584434D02*
X150736028Y-66941577D01*
X149736028Y-67298720D02*
X150736028Y-66941577D01*
X150736028Y-66941577D02*
X151093171Y-66798720D01*
X151093171Y-66798720D02*
X151164600Y-66727291D01*
X151164600Y-66727291D02*
X151236028Y-66584434D01*
X150736028Y-67870148D02*
X149736028Y-67870148D01*
X149878885Y-67870148D02*
X149807457Y-67941577D01*
X149807457Y-67941577D02*
X149736028Y-68084434D01*
X149736028Y-68084434D02*
X149736028Y-68298720D01*
X149736028Y-68298720D02*
X149807457Y-68441577D01*
X149807457Y-68441577D02*
X149950314Y-68513006D01*
X149950314Y-68513006D02*
X150736028Y-68513006D01*
X149950314Y-68513006D02*
X149807457Y-68584434D01*
X149807457Y-68584434D02*
X149736028Y-68727291D01*
X149736028Y-68727291D02*
X149736028Y-68941577D01*
X149736028Y-68941577D02*
X149807457Y-69084434D01*
X149807457Y-69084434D02*
X149950314Y-69155863D01*
X149950314Y-69155863D02*
X150736028Y-69155863D01*
X150736028Y-69870148D02*
X149736028Y-69870148D01*
X149878885Y-69870148D02*
X149807457Y-69941577D01*
X149807457Y-69941577D02*
X149736028Y-70084434D01*
X149736028Y-70084434D02*
X149736028Y-70298720D01*
X149736028Y-70298720D02*
X149807457Y-70441577D01*
X149807457Y-70441577D02*
X149950314Y-70513006D01*
X149950314Y-70513006D02*
X150736028Y-70513006D01*
X149950314Y-70513006D02*
X149807457Y-70584434D01*
X149807457Y-70584434D02*
X149736028Y-70727291D01*
X149736028Y-70727291D02*
X149736028Y-70941577D01*
X149736028Y-70941577D02*
X149807457Y-71084434D01*
X149807457Y-71084434D02*
X149950314Y-71155863D01*
X149950314Y-71155863D02*
X150736028Y-71155863D01*
X150664600Y-72441577D02*
X150736028Y-72298720D01*
X150736028Y-72298720D02*
X150736028Y-72013006D01*
X150736028Y-72013006D02*
X150664600Y-71870148D01*
X150664600Y-71870148D02*
X150521742Y-71798720D01*
X150521742Y-71798720D02*
X149950314Y-71798720D01*
X149950314Y-71798720D02*
X149807457Y-71870148D01*
X149807457Y-71870148D02*
X149736028Y-72013006D01*
X149736028Y-72013006D02*
X149736028Y-72298720D01*
X149736028Y-72298720D02*
X149807457Y-72441577D01*
X149807457Y-72441577D02*
X149950314Y-72513006D01*
X149950314Y-72513006D02*
X150093171Y-72513006D01*
X150093171Y-72513006D02*
X150236028Y-71798720D01*
X149736028Y-72941577D02*
X149736028Y-73513005D01*
X149236028Y-73155862D02*
X150521742Y-73155862D01*
X150521742Y-73155862D02*
X150664600Y-73227291D01*
X150664600Y-73227291D02*
X150736028Y-73370148D01*
X150736028Y-73370148D02*
X150736028Y-73513005D01*
X150736028Y-74013005D02*
X149736028Y-74013005D01*
X150021742Y-74013005D02*
X149878885Y-74084434D01*
X149878885Y-74084434D02*
X149807457Y-74155863D01*
X149807457Y-74155863D02*
X149736028Y-74298720D01*
X149736028Y-74298720D02*
X149736028Y-74441577D01*
X150736028Y-74941576D02*
X149736028Y-74941576D01*
X149236028Y-74941576D02*
X149307457Y-74870148D01*
X149307457Y-74870148D02*
X149378885Y-74941576D01*
X149378885Y-74941576D02*
X149307457Y-75013005D01*
X149307457Y-75013005D02*
X149236028Y-74941576D01*
X149236028Y-74941576D02*
X149378885Y-74941576D01*
X150664600Y-76298720D02*
X150736028Y-76155862D01*
X150736028Y-76155862D02*
X150736028Y-75870148D01*
X150736028Y-75870148D02*
X150664600Y-75727291D01*
X150664600Y-75727291D02*
X150593171Y-75655862D01*
X150593171Y-75655862D02*
X150450314Y-75584434D01*
X150450314Y-75584434D02*
X150021742Y-75584434D01*
X150021742Y-75584434D02*
X149878885Y-75655862D01*
X149878885Y-75655862D02*
X149807457Y-75727291D01*
X149807457Y-75727291D02*
X149736028Y-75870148D01*
X149736028Y-75870148D02*
X149736028Y-76155862D01*
X149736028Y-76155862D02*
X149807457Y-76298720D01*
X150736028Y-77584434D02*
X149950314Y-77584434D01*
X149950314Y-77584434D02*
X149807457Y-77513005D01*
X149807457Y-77513005D02*
X149736028Y-77370148D01*
X149736028Y-77370148D02*
X149736028Y-77084434D01*
X149736028Y-77084434D02*
X149807457Y-76941576D01*
X150664600Y-77584434D02*
X150736028Y-77441576D01*
X150736028Y-77441576D02*
X150736028Y-77084434D01*
X150736028Y-77084434D02*
X150664600Y-76941576D01*
X150664600Y-76941576D02*
X150521742Y-76870148D01*
X150521742Y-76870148D02*
X150378885Y-76870148D01*
X150378885Y-76870148D02*
X150236028Y-76941576D01*
X150236028Y-76941576D02*
X150164600Y-77084434D01*
X150164600Y-77084434D02*
X150164600Y-77441576D01*
X150164600Y-77441576D02*
X150093171Y-77584434D01*
X150736028Y-78513005D02*
X150664600Y-78370148D01*
X150664600Y-78370148D02*
X150521742Y-78298719D01*
X150521742Y-78298719D02*
X149236028Y-78298719D01*
X150736028Y-80227290D02*
X149236028Y-80227290D01*
X149236028Y-80227290D02*
X149236028Y-80798719D01*
X149236028Y-80798719D02*
X149307457Y-80941576D01*
X149307457Y-80941576D02*
X149378885Y-81013005D01*
X149378885Y-81013005D02*
X149521742Y-81084433D01*
X149521742Y-81084433D02*
X149736028Y-81084433D01*
X149736028Y-81084433D02*
X149878885Y-81013005D01*
X149878885Y-81013005D02*
X149950314Y-80941576D01*
X149950314Y-80941576D02*
X150021742Y-80798719D01*
X150021742Y-80798719D02*
X150021742Y-80227290D01*
X150736028Y-81941576D02*
X150664600Y-81798719D01*
X150664600Y-81798719D02*
X150593171Y-81727290D01*
X150593171Y-81727290D02*
X150450314Y-81655862D01*
X150450314Y-81655862D02*
X150021742Y-81655862D01*
X150021742Y-81655862D02*
X149878885Y-81727290D01*
X149878885Y-81727290D02*
X149807457Y-81798719D01*
X149807457Y-81798719D02*
X149736028Y-81941576D01*
X149736028Y-81941576D02*
X149736028Y-82155862D01*
X149736028Y-82155862D02*
X149807457Y-82298719D01*
X149807457Y-82298719D02*
X149878885Y-82370148D01*
X149878885Y-82370148D02*
X150021742Y-82441576D01*
X150021742Y-82441576D02*
X150450314Y-82441576D01*
X150450314Y-82441576D02*
X150593171Y-82370148D01*
X150593171Y-82370148D02*
X150664600Y-82298719D01*
X150664600Y-82298719D02*
X150736028Y-82155862D01*
X150736028Y-82155862D02*
X150736028Y-81941576D01*
X149736028Y-82941576D02*
X150736028Y-83227291D01*
X150736028Y-83227291D02*
X150021742Y-83513005D01*
X150021742Y-83513005D02*
X150736028Y-83798719D01*
X150736028Y-83798719D02*
X149736028Y-84084433D01*
X150664600Y-85227291D02*
X150736028Y-85084434D01*
X150736028Y-85084434D02*
X150736028Y-84798720D01*
X150736028Y-84798720D02*
X150664600Y-84655862D01*
X150664600Y-84655862D02*
X150521742Y-84584434D01*
X150521742Y-84584434D02*
X149950314Y-84584434D01*
X149950314Y-84584434D02*
X149807457Y-84655862D01*
X149807457Y-84655862D02*
X149736028Y-84798720D01*
X149736028Y-84798720D02*
X149736028Y-85084434D01*
X149736028Y-85084434D02*
X149807457Y-85227291D01*
X149807457Y-85227291D02*
X149950314Y-85298720D01*
X149950314Y-85298720D02*
X150093171Y-85298720D01*
X150093171Y-85298720D02*
X150236028Y-84584434D01*
X150736028Y-85941576D02*
X149736028Y-85941576D01*
X150021742Y-85941576D02*
X149878885Y-86013005D01*
X149878885Y-86013005D02*
X149807457Y-86084434D01*
X149807457Y-86084434D02*
X149736028Y-86227291D01*
X149736028Y-86227291D02*
X149736028Y-86370148D01*
X150664600Y-87941576D02*
X150736028Y-88155862D01*
X150736028Y-88155862D02*
X150736028Y-88513004D01*
X150736028Y-88513004D02*
X150664600Y-88655862D01*
X150664600Y-88655862D02*
X150593171Y-88727290D01*
X150593171Y-88727290D02*
X150450314Y-88798719D01*
X150450314Y-88798719D02*
X150307457Y-88798719D01*
X150307457Y-88798719D02*
X150164600Y-88727290D01*
X150164600Y-88727290D02*
X150093171Y-88655862D01*
X150093171Y-88655862D02*
X150021742Y-88513004D01*
X150021742Y-88513004D02*
X149950314Y-88227290D01*
X149950314Y-88227290D02*
X149878885Y-88084433D01*
X149878885Y-88084433D02*
X149807457Y-88013004D01*
X149807457Y-88013004D02*
X149664600Y-87941576D01*
X149664600Y-87941576D02*
X149521742Y-87941576D01*
X149521742Y-87941576D02*
X149378885Y-88013004D01*
X149378885Y-88013004D02*
X149307457Y-88084433D01*
X149307457Y-88084433D02*
X149236028Y-88227290D01*
X149236028Y-88227290D02*
X149236028Y-88584433D01*
X149236028Y-88584433D02*
X149307457Y-88798719D01*
X149736028Y-90084433D02*
X150736028Y-90084433D01*
X149736028Y-89441575D02*
X150521742Y-89441575D01*
X150521742Y-89441575D02*
X150664600Y-89513004D01*
X150664600Y-89513004D02*
X150736028Y-89655861D01*
X150736028Y-89655861D02*
X150736028Y-89870147D01*
X150736028Y-89870147D02*
X150664600Y-90013004D01*
X150664600Y-90013004D02*
X150593171Y-90084433D01*
X149736028Y-90798718D02*
X151236028Y-90798718D01*
X149807457Y-90798718D02*
X149736028Y-90941576D01*
X149736028Y-90941576D02*
X149736028Y-91227290D01*
X149736028Y-91227290D02*
X149807457Y-91370147D01*
X149807457Y-91370147D02*
X149878885Y-91441576D01*
X149878885Y-91441576D02*
X150021742Y-91513004D01*
X150021742Y-91513004D02*
X150450314Y-91513004D01*
X150450314Y-91513004D02*
X150593171Y-91441576D01*
X150593171Y-91441576D02*
X150664600Y-91370147D01*
X150664600Y-91370147D02*
X150736028Y-91227290D01*
X150736028Y-91227290D02*
X150736028Y-90941576D01*
X150736028Y-90941576D02*
X150664600Y-90798718D01*
X149736028Y-92155861D02*
X151236028Y-92155861D01*
X149807457Y-92155861D02*
X149736028Y-92298719D01*
X149736028Y-92298719D02*
X149736028Y-92584433D01*
X149736028Y-92584433D02*
X149807457Y-92727290D01*
X149807457Y-92727290D02*
X149878885Y-92798719D01*
X149878885Y-92798719D02*
X150021742Y-92870147D01*
X150021742Y-92870147D02*
X150450314Y-92870147D01*
X150450314Y-92870147D02*
X150593171Y-92798719D01*
X150593171Y-92798719D02*
X150664600Y-92727290D01*
X150664600Y-92727290D02*
X150736028Y-92584433D01*
X150736028Y-92584433D02*
X150736028Y-92298719D01*
X150736028Y-92298719D02*
X150664600Y-92155861D01*
X150736028Y-93727290D02*
X150664600Y-93584433D01*
X150664600Y-93584433D02*
X150521742Y-93513004D01*
X150521742Y-93513004D02*
X149236028Y-93513004D01*
X149736028Y-94155861D02*
X150736028Y-94513004D01*
X149736028Y-94870147D02*
X150736028Y-94513004D01*
X150736028Y-94513004D02*
X151093171Y-94370147D01*
X151093171Y-94370147D02*
X151164600Y-94298718D01*
X151164600Y-94298718D02*
X151236028Y-94155861D01*
X150164600Y-96584432D02*
X150164600Y-97727290D01*
X150736028Y-97155861D02*
X149593171Y-97155861D01*
X150736028Y-99227290D02*
X150736028Y-98370147D01*
X150736028Y-98798718D02*
X149236028Y-98798718D01*
X149236028Y-98798718D02*
X149450314Y-98655861D01*
X149450314Y-98655861D02*
X149593171Y-98513004D01*
X149593171Y-98513004D02*
X149664600Y-98370147D01*
X149236028Y-100584432D02*
X149236028Y-99870146D01*
X149236028Y-99870146D02*
X149950314Y-99798718D01*
X149950314Y-99798718D02*
X149878885Y-99870146D01*
X149878885Y-99870146D02*
X149807457Y-100013004D01*
X149807457Y-100013004D02*
X149807457Y-100370146D01*
X149807457Y-100370146D02*
X149878885Y-100513004D01*
X149878885Y-100513004D02*
X149950314Y-100584432D01*
X149950314Y-100584432D02*
X150093171Y-100655861D01*
X150093171Y-100655861D02*
X150450314Y-100655861D01*
X150450314Y-100655861D02*
X150593171Y-100584432D01*
X150593171Y-100584432D02*
X150664600Y-100513004D01*
X150664600Y-100513004D02*
X150736028Y-100370146D01*
X150736028Y-100370146D02*
X150736028Y-100013004D01*
X150736028Y-100013004D02*
X150664600Y-99870146D01*
X150664600Y-99870146D02*
X150593171Y-99798718D01*
X149236028Y-101084432D02*
X150736028Y-101584432D01*
X150736028Y-101584432D02*
X149236028Y-102084432D01*
X149164600Y-103655860D02*
X151093171Y-102370146D01*
X150164600Y-104155860D02*
X150164600Y-105298718D01*
X150736028Y-106798718D02*
X150736028Y-105941575D01*
X150736028Y-106370146D02*
X149236028Y-106370146D01*
X149236028Y-106370146D02*
X149450314Y-106227289D01*
X149450314Y-106227289D02*
X149593171Y-106084432D01*
X149593171Y-106084432D02*
X149664600Y-105941575D01*
X149236028Y-108155860D02*
X149236028Y-107441574D01*
X149236028Y-107441574D02*
X149950314Y-107370146D01*
X149950314Y-107370146D02*
X149878885Y-107441574D01*
X149878885Y-107441574D02*
X149807457Y-107584432D01*
X149807457Y-107584432D02*
X149807457Y-107941574D01*
X149807457Y-107941574D02*
X149878885Y-108084432D01*
X149878885Y-108084432D02*
X149950314Y-108155860D01*
X149950314Y-108155860D02*
X150093171Y-108227289D01*
X150093171Y-108227289D02*
X150450314Y-108227289D01*
X150450314Y-108227289D02*
X150593171Y-108155860D01*
X150593171Y-108155860D02*
X150664600Y-108084432D01*
X150664600Y-108084432D02*
X150736028Y-107941574D01*
X150736028Y-107941574D02*
X150736028Y-107584432D01*
X150736028Y-107584432D02*
X150664600Y-107441574D01*
X150664600Y-107441574D02*
X150593171Y-107370146D01*
X149236028Y-108655860D02*
X150736028Y-109155860D01*
X150736028Y-109155860D02*
X149236028Y-109655860D01*
%LPC*%
D11*
X116800000Y-113010000D03*
D12*
X142960000Y-69810000D03*
X137960000Y-69810000D03*
X107610000Y-119760000D03*
D13*
X107610000Y-129920000D03*
D12*
X130720000Y-98280000D03*
D13*
X140880000Y-98280000D03*
D12*
X112170000Y-132990000D03*
X107170000Y-132990000D03*
X144580000Y-105420000D03*
X144580000Y-100420000D03*
D14*
X109090000Y-54020000D03*
D15*
X114170000Y-54020000D03*
D16*
X130730000Y-76820000D03*
D12*
X127230000Y-76820000D03*
D17*
X118160000Y-68170000D03*
D18*
X108000000Y-68170000D03*
D19*
X161740000Y-114465000D03*
D20*
X161740000Y-111925000D03*
D17*
X140860000Y-94450000D03*
D18*
X140860000Y-84290000D03*
D21*
X139795000Y-56505000D03*
D15*
X134715000Y-56505000D03*
X129635000Y-56505000D03*
D11*
X116330000Y-60910000D03*
D17*
X160660000Y-58430000D03*
D18*
X160660000Y-68590000D03*
D14*
X155830000Y-132430000D03*
D15*
X160910000Y-132430000D03*
D22*
X160690000Y-53740000D03*
D15*
X155610000Y-53740000D03*
D12*
X146460000Y-120760000D03*
D13*
X156620000Y-120760000D03*
D12*
X126560000Y-100000000D03*
X126560000Y-105000000D03*
D21*
X138755000Y-130715000D03*
D15*
X133675000Y-130715000D03*
D22*
X150470000Y-132430000D03*
D15*
X145390000Y-132430000D03*
D23*
X124365216Y-122950000D03*
D24*
X119365216Y-122950000D03*
D17*
X128630000Y-84290000D03*
D18*
X128630000Y-94450000D03*
D12*
X111570000Y-129920000D03*
D13*
X111570000Y-119760000D03*
D16*
X162080000Y-91470000D03*
D13*
X162080000Y-88930000D03*
X162080000Y-86390000D03*
D17*
X116840000Y-132090000D03*
D18*
X127000000Y-132090000D03*
D11*
X152460000Y-60990000D03*
D12*
X145330000Y-125830000D03*
X150330000Y-125830000D03*
D16*
X155200000Y-127630000D03*
D13*
X157740000Y-127630000D03*
X160280000Y-127630000D03*
D16*
X146380000Y-110060000D03*
D13*
X146380000Y-117680000D03*
D12*
X124610000Y-108760000D03*
X129610000Y-108760000D03*
D17*
X123520000Y-62810000D03*
D18*
X123520000Y-52650000D03*
D17*
X146070000Y-52700000D03*
D18*
X146070000Y-62860000D03*
D12*
X131530000Y-69750000D03*
X126530000Y-69750000D03*
X141330000Y-122480000D03*
D13*
X131170000Y-122480000D03*
D11*
X152890000Y-113000000D03*
D25*
X133190000Y-103170000D03*
D26*
X133190000Y-105710000D03*
X133190000Y-108250000D03*
X133190000Y-110790000D03*
X140810000Y-110790000D03*
X140810000Y-108250000D03*
X140810000Y-105710000D03*
X140810000Y-103170000D03*
D12*
X131170000Y-119060000D03*
D13*
X141330000Y-119060000D03*
D16*
X107150000Y-86390000D03*
D13*
X107150000Y-88930000D03*
X107150000Y-91470000D03*
D12*
X131090000Y-115710000D03*
D13*
X141250000Y-115710000D03*
D16*
X142592651Y-76820000D03*
D12*
X139092651Y-76820000D03*
D20*
X109000000Y-115510000D03*
X109000000Y-112970000D03*
X109000000Y-110430000D03*
%LPD*%
M02*
