M48
; DRILL file {KiCad 7.0.10-dirty} date Sun Feb  4 15:30:17 2024
; FORMAT={-:-/ absolute / metric / decimal}
; #@! TF.CreationDate,2024-02-04T15:30:17-03:00
; #@! TF.GenerationSoftware,Kicad,Pcbnew,7.0.10-dirty
; #@! TF.FileFunction,Plated,1,2,PTH
FMAT,2
METRIC
; #@! TA.AperFunction,Plated,PTH,ComponentDrill
T1C0.800
; #@! TA.AperFunction,Plated,PTH,ComponentDrill
T2C0.900
; #@! TA.AperFunction,Plated,PTH,ComponentDrill
T3C1.100
; #@! TA.AperFunction,Plated,PTH,ComponentDrill
T4C1.200
; #@! TA.AperFunction,Plated,PTH,ComponentDrill
T5C1.300
%
G90
G05
T1
X107.17Y-132.99
X107.61Y-119.76
X107.61Y-129.92
X109.0Y-110.43
X109.0Y-112.97
X109.0Y-115.51
X111.57Y-119.76
X111.57Y-129.92
X112.17Y-132.99
X124.61Y-108.76
X126.53Y-69.75
X126.56Y-100.0
X126.56Y-105.0
X127.23Y-76.82
X129.61Y-108.76
X130.72Y-98.28
X130.73Y-76.82
X131.09Y-115.71
X131.17Y-119.06
X131.17Y-122.48
X131.53Y-69.75
X133.19Y-103.17
X133.19Y-105.71
X133.19Y-108.25
X133.19Y-110.79
X137.96Y-69.81
X139.093Y-76.82
X140.81Y-103.17
X140.81Y-105.71
X140.81Y-108.25
X140.81Y-110.79
X140.88Y-98.28
X141.25Y-115.71
X141.33Y-119.06
X141.33Y-122.48
X142.593Y-76.82
X142.96Y-69.81
X144.58Y-100.42
X144.58Y-105.42
X145.33Y-125.83
X146.38Y-110.06
X146.38Y-117.68
X146.46Y-120.76
X150.33Y-125.83
X156.62Y-120.76
T2
X161.74Y-111.925
X161.74Y-114.465
T3
X107.15Y-86.39
X107.15Y-88.93
X107.15Y-91.47
X108.0Y-68.17
X116.84Y-132.09
X118.16Y-68.17
X123.52Y-52.65
X123.52Y-62.81
X127.0Y-132.09
X128.63Y-84.29
X128.63Y-94.45
X140.86Y-84.29
X140.86Y-94.45
X146.07Y-52.7
X146.07Y-62.86
X155.2Y-127.63
X157.74Y-127.63
X160.28Y-127.63
X160.66Y-58.43
X160.66Y-68.59
X162.08Y-86.39
X162.08Y-88.93
X162.08Y-91.47
T4
X119.365Y-122.95
X124.365Y-122.95
T5
X109.09Y-54.02
X114.17Y-54.02
X129.635Y-56.505
X133.675Y-130.715
X134.715Y-56.505
X138.755Y-130.715
X139.795Y-56.505
X145.39Y-132.43
X150.47Y-132.43
X155.61Y-53.74
X155.83Y-132.43
X160.69Y-53.74
X160.91Y-132.43
M30
